<svg id="Capa_1" data-name="Capa 1" xmlns="http://www.w3.org/2000/svg" viewBox="0 0 268.42 268.45"><defs><style>.cls-1{fill:#1d1d1b;}.cls-2{fill:#fff;stroke-width:2px;}.cls-2,.cls-3{stroke:#1d1d1b;stroke-miterlimit:10;}.cls-3{fill:none;stroke-width:8px;}</style></defs><title>logo</title><rect class="cls-1" x="119.92" y="1.03" width="30.13" height="253.02"/><rect class="cls-1" x="1" width="266.42" height="31.4"/><path class="cls-2" d="M418.08,391.73A133.21,133.21,0,1,1,284.87,258.52,133.21,133.21,0,0,1,418.08,391.73ZM285.64,286.53a105.2,105.2,0,1,0,105.2,105.2A105.2,105.2,0,0,0,285.64,286.53Z" transform="translate(-150.66 -257.49)"/><path class="cls-3" d="M303.53,391.87c0-17.55.06-82.49.06-100,48.93,7.6,85.41,49.94,85.71,99.19.29,49.76-36.43,92.83-85.87,100.43C303.45,474.05,303.51,409.27,303.53,391.87Z" transform="translate(-150.66 -257.49)"/></svg>